<svg width="18" height="18" viewBox="0 0 18 18" fill="none" xmlns="http://www.w3.org/2000/svg">
<path d="M10.8579 8.04233C10.2953 7.47992 9.53237 7.16397 8.73688 7.16397C7.94138 7.16397 7.17846 7.47992 6.61588 8.04233L3.61588 11.0423C3.32935 11.3191 3.1008 11.6501 2.94357 12.0161C2.78635 12.3821 2.70359 12.7758 2.70013 13.1741C2.69666 13.5725 2.77257 13.9675 2.92341 14.3362C3.07425 14.7049 3.29701 15.0398 3.57869 15.3215C3.86037 15.6032 4.19533 15.826 4.56401 15.9768C4.9327 16.1276 5.32774 16.2035 5.72608 16.2001C6.12442 16.1966 6.51808 16.1139 6.88409 15.9566C7.2501 15.7994 7.58114 15.5709 7.85788 15.2843L8.68438 14.4586M8.11588 10.7843C8.67846 11.3467 9.44138 11.6627 10.2369 11.6627C11.0324 11.6627 11.7953 11.3467 12.3579 10.7843L15.3579 7.78433C15.9044 7.21852 16.2067 6.46072 16.1999 5.67413C16.1931 4.88754 15.8776 4.1351 15.3213 3.57888C14.7651 3.02265 14.0127 2.70714 13.2261 2.70031C12.4395 2.69347 11.6817 2.99586 11.1159 3.54233L10.2909 4.36733" stroke="#8B949E" stroke-width="1.6" stroke-linecap="round" stroke-linejoin="round"/>
</svg>
